<svg width="108" height="67" viewBox="0 0 108 67" fill="none" xmlns="http://www.w3.org/2000/svg">
<path d="M29 14H22V21H29V14Z" fill="#3333FF"/>
<path d="M22 28.72V22.2083H7.09528V14.4583H22V8H1V38.9979L7.17647 39V28.6667H22V28.72Z" fill="#3333FF"/>
<path d="M58.3333 22.39V16H37V39H43.6667V22.39H58.3333V38.9979H65V22.39H58.3333Z" fill="#3333FF"/>
<path d="M93.8687 32.5434H79.1535V14.4588H93.8687V32.5434H100V14.4588H93.8687V8H73V39H93.8687V32.5434Z" fill="#3333FF"/>
<path d="M29 39H20.9423L11 28H19.0577L29 39Z" fill="#3333FF"/>
<path d="M107 32H100V39H107V32Z" fill="#3333FF"/>
<path d="M1.372 52.2H4.676C5.86133 52.2 6.75267 52.4847 7.35 53.054C7.95667 53.614 8.26 54.37 8.26 55.322C8.26 56.2833 7.96133 57.044 7.364 57.604C6.76667 58.164 5.87067 58.444 4.676 58.444H2.688V62H1.372V52.2ZM4.676 57.31C5.46933 57.31 6.04333 57.142 6.398 56.806C6.762 56.4607 6.944 55.966 6.944 55.322C6.944 54.6873 6.762 54.202 6.398 53.866C6.04333 53.5207 5.46933 53.348 4.676 53.348H2.688V57.31H4.676ZM10.3271 52.2H11.6431V56.386H16.0671V52.2H17.3831V62H16.0671V57.534H11.6431V62H10.3271V52.2ZM19.1358 60.852H20.1018C20.3351 60.4973 20.5218 60.096 20.6618 59.648C20.8018 59.1907 20.9091 58.6913 20.9838 58.15C21.0678 57.6087 21.1191 57.0253 21.1378 56.4C21.1658 55.7747 21.1798 55.112 21.1798 54.412V52.2H27.2278V60.852H28.4178V63.82H27.1578V62H20.4098V63.82H19.1358V60.852ZM25.9118 60.852V53.348H22.4258V54.412C22.4258 55.7653 22.3651 56.988 22.2438 58.08C22.1318 59.172 21.8845 60.096 21.5018 60.852H25.9118ZM30.934 62.098C30.654 62.098 30.416 62 30.22 61.804C30.024 61.608 29.926 61.37 29.926 61.09C29.926 60.8007 30.024 60.5627 30.22 60.376C30.416 60.18 30.654 60.082 30.934 60.082C31.214 60.082 31.452 60.18 31.648 60.376C31.844 60.5627 31.942 60.8007 31.942 61.09C31.942 61.37 31.844 61.608 31.648 61.804C31.452 62 31.214 62.098 30.934 62.098ZM35.6523 53.348H32.5723V52.2H40.0483V53.348H36.9683V62H35.6523V53.348ZM43.167 62.098C42.719 62.098 42.3084 62.028 41.935 61.888C41.571 61.7387 41.2584 61.524 40.997 61.244C40.745 60.9547 40.5444 60.6047 40.395 60.194C40.255 59.774 40.185 59.2933 40.185 58.752V57.688C40.185 56.6427 40.4417 55.8493 40.955 55.308C41.4777 54.7573 42.1917 54.482 43.097 54.482C44.0024 54.482 44.7117 54.7573 45.225 55.308C45.7477 55.8493 46.009 56.652 46.009 57.716V58.654H41.417C41.4264 59.5033 41.585 60.1147 41.893 60.488C42.2104 60.852 42.635 61.034 43.167 61.034C43.4004 61.034 43.601 61.006 43.769 60.95C43.9464 60.8847 44.091 60.8007 44.203 60.698C44.3244 60.5953 44.4177 60.4787 44.483 60.348C44.5484 60.2173 44.595 60.082 44.623 59.942H45.869C45.7197 60.67 45.4164 61.2113 44.959 61.566C44.5017 61.9207 43.9044 62.098 43.167 62.098ZM43.111 55.546C42.579 55.546 42.1637 55.7093 41.865 56.036C41.5757 56.3533 41.4264 56.89 41.417 57.646H44.847C44.8284 56.89 44.6697 56.3533 44.371 56.036C44.0817 55.7093 43.6617 55.546 43.111 55.546ZM47.1085 60.824C47.3885 60.7867 47.6218 60.7027 47.8085 60.572C47.9951 60.4413 48.1445 60.2453 48.2565 59.984C48.3685 59.7133 48.4478 59.3727 48.4945 58.962C48.5411 58.5513 48.5645 58.0473 48.5645 57.45V54.58H53.4505V62H52.2045V55.658H49.7825V57.45C49.7825 59.046 49.5771 60.222 49.1665 60.978C48.7558 61.7247 48.0698 62.098 47.1085 62.098V60.824ZM58.2061 62.098C57.7581 62.098 57.3474 62.028 56.9741 61.888C56.6101 61.7387 56.2974 61.524 56.0361 61.244C55.7841 60.9547 55.5834 60.6047 55.4341 60.194C55.2941 59.774 55.2241 59.2933 55.2241 58.752V57.688C55.2241 56.6427 55.4808 55.8493 55.9941 55.308C56.5168 54.7573 57.2308 54.482 58.1361 54.482C59.0414 54.482 59.7508 54.7573 60.2641 55.308C60.7868 55.8493 61.0481 56.652 61.0481 57.716V58.654H56.4561C56.4654 59.5033 56.6241 60.1147 56.9321 60.488C57.2494 60.852 57.6741 61.034 58.2061 61.034C58.4394 61.034 58.6401 61.006 58.8081 60.95C58.9854 60.8847 59.1301 60.8007 59.2421 60.698C59.3634 60.5953 59.4568 60.4787 59.5221 60.348C59.5874 60.2173 59.6341 60.082 59.6621 59.942H60.9081C60.7588 60.67 60.4554 61.2113 59.9981 61.566C59.5408 61.9207 58.9434 62.098 58.2061 62.098ZM58.1501 55.546C57.6181 55.546 57.2028 55.7093 56.9041 56.036C56.6148 56.3533 56.4654 56.89 56.4561 57.646H59.8861C59.8674 56.89 59.7088 56.3533 59.4101 56.036C59.1208 55.7093 58.7008 55.546 58.1501 55.546ZM62.8195 54.58H64.1075L66.5715 59.214L69.0215 54.58H70.2395V62H69.0495V56.61L67.1175 60.32H65.9415L64.0095 56.61V62H62.8195V54.58ZM74.0432 62.084C73.3618 62.084 72.8298 61.8973 72.4472 61.524C72.0645 61.1413 71.8732 60.6093 71.8732 59.928C71.8732 59.2093 72.0785 58.6633 72.4892 58.29C72.8998 57.9073 73.5578 57.716 74.4632 57.716H76.2272V57.002C76.2272 56.498 76.1105 56.134 75.8772 55.91C75.6532 55.6767 75.3032 55.56 74.8272 55.56C74.5845 55.56 74.3792 55.588 74.2112 55.644C74.0432 55.6907 73.9078 55.7607 73.8052 55.854C73.7025 55.938 73.6232 56.036 73.5672 56.148C73.5112 56.26 73.4785 56.372 73.4692 56.484H72.2652C72.2932 56.1947 72.3585 55.9287 72.4612 55.686C72.5638 55.4433 72.7178 55.2333 72.9232 55.056C73.1285 54.8787 73.3852 54.7387 73.6932 54.636C74.0105 54.5333 74.3932 54.482 74.8412 54.482C75.7372 54.482 76.3952 54.692 76.8152 55.112C77.2352 55.5227 77.4452 56.1527 77.4452 57.002V62H76.3672V60.768C76.2738 60.9267 76.1665 61.0853 76.0452 61.244C75.9238 61.4027 75.7698 61.5473 75.5832 61.678C75.4058 61.7993 75.1912 61.8973 74.9392 61.972C74.6872 62.0467 74.3885 62.084 74.0432 62.084ZM74.3932 61.02C74.9532 61.02 75.3965 60.8567 75.7232 60.53C76.0592 60.194 76.2272 59.7413 76.2272 59.172V58.724H74.5192C73.9872 58.724 73.6138 58.822 73.3992 59.018C73.1938 59.2047 73.0912 59.5033 73.0912 59.914C73.0912 60.2407 73.1985 60.5067 73.4132 60.712C73.6278 60.9173 73.9545 61.02 74.3932 61.02ZM81.0259 55.658H78.6599V54.58H84.6239V55.658H82.2579V62H81.0259V55.658ZM85.9113 54.58H87.1013V60.25L90.5593 54.58H91.7913V62H90.6013V56.33L87.1433 62H85.9113V54.58ZM93.8957 54.58H95.1417V57.688H96.1077L98.4877 54.58H99.8737L97.1297 58.178L100.098 62H98.6417L96.1217 58.752H95.1417V62H93.8957V54.58ZM103.082 62.084C102.401 62.084 101.869 61.8973 101.486 61.524C101.104 61.1413 100.912 60.6093 100.912 59.928C100.912 59.2093 101.118 58.6633 101.528 58.29C101.939 57.9073 102.597 57.716 103.502 57.716H105.266V57.002C105.266 56.498 105.15 56.134 104.916 55.91C104.692 55.6767 104.342 55.56 103.866 55.56C103.624 55.56 103.418 55.588 103.25 55.644C103.082 55.6907 102.947 55.7607 102.844 55.854C102.742 55.938 102.662 56.036 102.606 56.148C102.55 56.26 102.518 56.372 102.508 56.484H101.304C101.332 56.1947 101.398 55.9287 101.5 55.686C101.603 55.4433 101.757 55.2333 101.962 55.056C102.168 54.8787 102.424 54.7387 102.732 54.636C103.05 54.5333 103.432 54.482 103.88 54.482C104.776 54.482 105.434 54.692 105.854 55.112C106.274 55.5227 106.484 56.1527 106.484 57.002V62H105.406V60.768C105.313 60.9267 105.206 61.0853 105.084 61.244C104.963 61.4027 104.809 61.5473 104.622 61.678C104.445 61.7993 104.23 61.8973 103.978 61.972C103.726 62.0467 103.428 62.084 103.082 62.084ZM103.432 61.02C103.992 61.02 104.436 60.8567 104.762 60.53C105.098 60.194 105.266 59.7413 105.266 59.172V58.724H103.558C103.026 58.724 102.653 58.822 102.438 59.018C102.233 59.2047 102.13 59.5033 102.13 59.914C102.13 60.2407 102.238 60.5067 102.452 60.712C102.667 60.9173 102.994 61.02 103.432 61.02Z" fill="#A1A1B3"/>
</svg>
