<svg width="107" height="47" viewBox="0 0 107 47" fill="none" xmlns="http://www.w3.org/2000/svg">
<path d="M29 14H22V21H29V14Z" fill="#3333FF"/>
<path d="M22 28.72V22.2083H7.09528V14.4583H22V8H1V38.9979L7.17647 39V28.6667H22V28.72Z" fill="#3333FF"/>
<path d="M58.3333 22.39V16H37V39H43.6667V22.39H58.3333V38.9979H65V22.39H58.3333Z" fill="#3333FF"/>
<path d="M93.8687 32.5434H79.1535V14.4588H93.8687V32.5434H100V14.4588H93.8687V8H73V39H93.8687V32.5434Z" fill="#3333FF"/>
<path d="M29 39H20.9423L11 28H19.0577L29 39Z" fill="#3333FF"/>
<path d="M107 32H100V39H107V32Z" fill="#3333FF"/>
</svg>
